<svg width="1024" height="1024" viewBox="0 0 1024 1024" fill="none" xmlns="http://www.w3.org/2000/svg">
<path d="M926.36 694.282V325.94C926.343 309.791 922.08 293.931 913.999 279.95C905.918 265.97 894.302 254.36 880.317 246.286L558.018 62.1145C544.019 54.0323 528.139 49.7773 511.975 49.7773C495.81 49.7773 479.931 54.0323 465.932 62.1145L143.633 246.286C129.648 254.36 118.032 265.97 109.951 279.95C101.869 293.931 97.6064 309.791 97.5898 325.94V694.282C97.6064 710.43 101.869 726.29 109.951 740.271C118.032 754.252 129.648 765.862 143.633 773.936L465.932 958.107C479.931 966.189 495.81 970.444 511.975 970.444C528.139 970.444 544.019 966.189 558.018 958.107L880.317 773.936C894.302 765.862 905.918 754.252 913.999 740.271C922.08 726.29 926.343 710.43 926.36 694.282Z" fill="#F24822"/>
<path d="M109.951 279.95L511.975 510.571L913.999 279.95" fill="#F24822"/>
<path d="M913.999 279.95C922.08 293.931 926.343 309.791 926.36 325.94V694.282C926.343 710.43 922.08 726.29 913.999 740.271C905.918 754.252 894.302 765.862 880.317 773.936L558.018 958.107C544.019 966.189 528.139 970.444 511.975 970.444M913.999 279.95C905.918 265.97 894.302 254.36 880.317 246.286L558.018 62.1145C544.019 54.0323 528.139 49.7773 511.975 49.7773C495.81 49.7773 479.931 54.0323 465.932 62.1145L143.633 246.286C129.648 254.36 118.032 265.97 109.951 279.95M913.999 279.95L511.975 510.571L109.951 279.95M109.951 279.95C101.869 293.931 97.6064 309.791 97.5898 325.94V694.282C97.6064 710.43 101.869 726.29 109.951 740.271C118.032 754.252 129.648 765.862 143.633 773.936L465.932 958.107C479.931 966.189 495.81 970.444 511.975 970.444M511.975 970.444V510.111" stroke="black" stroke-width="7" stroke-linecap="round" stroke-linejoin="round"/>
</svg>
